# File created by Blade
# Date/Time:  Wed Jan 21 19:03:17 2015
#---------------------------------------------------------
:version 1.10
:name HOM
:units
  mass 1.0
  length 1.000000
  angle deg
:documentation
     Acclaim Skeleton File
:root
   axis xyz
   order TX TY TZ RX RY RZ
   position 0.000000 0.000000 0.000000
   orientation 0 0 0
:bonedata
   begin
      id 1
      name RightUpLeg_dum
      direction -1.000000 0.000000 0.000000
      length 3.693983
      axis 0.0 0.0 0.0 xyz
   end
   begin
      id 2
      name LeftUpLeg_dum
      direction 1.000000 0.000000 0.000000
      length 3.693983
      axis 0.0 0.0 0.0 xyz
   end
   begin
      id 3
      name Spine_dum
      direction 0.000000 1.000000 0.000000
      length 2.392956
      axis 0.0 0.0 0.0 xyz
   end
   begin
      id 4
      name RightUpLeg
      direction 0.000000 -1.000000 0.000000
      length 15.795667
      axis 0.0 0.0 0.0 xyz
      dof rx ry rz
   end
   begin
      id 5
      name RightLeg
      direction 0.000000 -1.000000 0.000000
      length 14.766989
      axis 0.0 0.0 0.0 xyz
      dof rx ry rz
   end
   begin
      id 6
      name RightFoot
      direction 0.000000 -0.258819 0.965926
      length 4.962790
      axis 15.0 0.0 0.0 xyz
      dof rx ry rz
   end
   begin
      id 7
      name RightToeBase
      direction 0.000000 0.000000 1.000000
      length 2.952750
      axis 0.0 0.0 0.0 xyz
      dof rx ry rz
   end
   begin
      id 8
      name LeftUpLeg
      direction 0.000000 -1.000000 0.000000
      length 15.795667
      axis 0.0 0.0 0.0 xyz
      dof rx ry rz
   end
   begin
      id 9
      name LeftLeg
      direction 0.000000 -1.000000 0.000000
      length 14.766989
      axis 0.0 0.0 0.0 xyz
      dof rx ry rz
   end
   begin
      id 10
      name LeftFoot
      direction 0.000000 -0.258819 0.965926
      length 4.962790
      axis 15.0 0.0 0.0 xyz
      dof rx ry rz
   end
   begin
      id 11
      name LeftToeBase
      direction 0.000000 0.000000 1.000000
      length 2.952750
      axis 0.0 0.0 0.0 xyz
      dof rx ry rz
   end
   begin
      id 12
      name Spine
      direction 0.000000 1.000000 0.000000
      length 0.000000
      axis 0.0 0.0 0.0 xyz
      dof rx ry rz
   end
   begin
      id 13
      name Spine_dum1
      direction 0.000000 1.000000 0.000000
      length 13.207411
      axis 0.0 0.0 0.0 xyz
   end
   begin
      id 14
      name Spine_dum2
      direction 0.000000 1.000000 0.000000
      length 13.207411
      axis 0.0 0.0 0.0 xyz
   end
   begin
      id 15
      name Spine_dum3
      direction 0.000000 1.000000 0.000000
      length 19.250100
      axis 0.0 0.0 0.0 xyz
   end
   begin
      id 16
      name RightShoulder
      direction -1.000000 0.000000 0.000000
      length 8.140465
      axis 0.0 0.0 90.0 xyz
      dof rx ry rz
   end
   begin
      id 17
      name RightArm
      direction -1.000000 0.000000 0.000000
      length 10.649840
      axis 0.0 0.0 90.0 xyz
      dof rx ry rz
   end
   begin
      id 18
      name RightForeArm
      direction -1.000000 0.000000 0.000000
      length 8.304624
      axis 0.0 0.0 90.0 xyz
      dof ry rz rx
   end
   begin
      id 19
      name RightHand
      direction -1.000000 0.000000 0.000000
      length 0.000000
      axis 0.0 0.0 90.0 xyz
      dof rx ry rz
   end
   begin
      id 20
      name RightHand_dum1
      direction -1.000000 0.000000 0.000000
      length 3.937000
      axis 0.0 0.0 90.0 xyz
   end
   begin
      id 21
      name RightHand_dum2
      direction 0.000000 0.000000 0.000000
      length 0.000000
      axis 0.0 0.0 90.0 xyz
   end
   begin
      id 22
      name RightHandThumb1
      direction 0.000000 0.000000 1.000000
      length 3.937000
      axis 0.0 0.0 90.0 xyz
      dof rx rz ry
   end
   begin
      id 23
      name LeftShoulder
      direction 1.000000 0.000000 0.000000
      length 8.140465
      axis 0.0 0.0 -90.0 xyz
      dof rx ry rz
   end
   begin
      id 24
      name LeftArm
      direction 1.000000 0.000000 0.000000
      length 10.649840
      axis 0.0 0.0 -90.0 xyz
      dof rx ry rz
   end
   begin
      id 25
      name LeftForeArm
      direction 1.000000 0.000000 0.000000
      length 8.304624
      axis 0.0 0.0 -90.0 xyz
      dof ry rz rx
   end
   begin
      id 26
      name LeftHand
      direction 1.000000 0.000000 0.000000
      length 0.000000
      axis 0.0 0.0 -90.0 xyz
      dof rx ry rz
   end
   begin
      id 27
      name LeftHand_dum1
      direction 1.000000 0.000000 0.000000
      length 3.937000
      axis 0.0 0.0 -90.0 xyz
   end
   begin
      id 28
      name LeftHand_dum2
      direction 0.000000 0.000000 0.000000
      length 0.000000
      axis 0.0 0.0 -90.0 xyz
   end
   begin
      id 29
      name LeftHandThumb1
      direction 0.000000 0.000000 1.000000
      length 3.937000
      axis 0.0 0.0 -90.0 xyz
      dof rx rz ry
   end
   begin
      id 30
      name Head
      direction 0.000000 1.000000 0.000000
      length 4.527550
      axis 0.0 0.0 0.0 xyz
      dof rx ry rz
   end
:hierarchy
   begin
      root RightUpLeg_dum LeftUpLeg_dum Spine_dum
      RightUpLeg_dum RightUpLeg
      LeftUpLeg_dum LeftUpLeg
      Spine_dum Spine
      RightUpLeg RightLeg
      RightLeg RightFoot
      RightFoot RightToeBase
      LeftUpLeg LeftLeg
      LeftLeg LeftFoot
      LeftFoot LeftToeBase
      Spine Spine_dum1 Spine_dum2 Spine_dum3
      Spine_dum1 RightShoulder
      Spine_dum2 LeftShoulder
      Spine_dum3 Head
      RightShoulder RightArm
      RightArm RightForeArm
      RightForeArm RightHand
      RightHand RightHand_dum1 RightHand_dum2
      RightHand_dum2 RightHandThumb1
      LeftShoulder LeftArm
      LeftArm LeftForeArm
      LeftForeArm LeftHand
      LeftHand LeftHand_dum1 LeftHand_dum2
      LeftHand_dum2 LeftHandThumb1
   end

# File created by Blade
# Date/Time:  Wed Jan 21 19:03:07 2015
# Frame Rate: 120.000 fps
#------------------------------------------------------
:FULLY-SPECIFIED
:DEGREES
254
root 2.697186 32.502797 -6.385418 46.807271 3.552229 -2.567951
RightUpLeg -50.153685 -34.844182 3.363875
RightLeg -1.852685 -0.000000 0.000000
RightFoot 23.898302 -14.619819 12.916937
RightToeBase 19.238344 -0.000000 -0.000000
LeftUpLeg -43.285837 14.847939 -1.438269
LeftLeg -2.244724 -0.000000 0.000000
LeftFoot -6.967824 -2.217942 -13.900180
LeftToeBase 9.370066 -0.000000 -0.000000
Spine -42.145743 -4.572367 -1.761732
RightShoulder -20.484002 11.633765 -42.361239
RightArm -0.500605 -9.486910 49.090264
RightForeArm 10.473231 -0.000000 -6.858035
RightHand 8.730164 -0.000000 6.572365
RightHandThumb1 -24.326973 -0.000000 -32.862282
LeftShoulder -11.164822 6.745062 39.943103
LeftArm 21.913675 -15.466496 -44.020546
LeftForeArm 8.759075 -0.000000 -3.936655
LeftHand -16.513574 0.000000 -6.952430
LeftHandThumb1 -26.253704 0.000000 33.147579
Head 34.499400 -35.570643 5.269307
255
root 2.594878 32.487009 -6.366535 46.805802 3.647230 -2.551527
RightUpLeg -50.235625 -35.257947 3.363402
RightLeg -1.778547 -0.000000 0.000000
RightFoot 24.297328 -14.819569 12.764354
RightToeBase 19.417285 -0.000000 -0.000000
LeftUpLeg -43.283857 14.974662 -1.325300
LeftLeg -2.270947 -0.000000 0.000000
LeftFoot -6.916642 -2.277098 -13.937392
LeftToeBase 9.336524 -0.000000 -0.000000
Spine -42.171863 -4.676473 -1.834325
RightShoulder -20.502473 11.555604 -42.324265
RightArm -0.487345 -9.464925 49.029296
RightForeArm 10.466715 -0.000000 -6.909550
RightHand 8.953727 -0.000000 6.559215
RightHandThumb1 -24.326973 -0.000000 -32.862282
LeftShoulder -11.139424 6.705588 39.927009
LeftArm 21.960336 -15.342020 -43.945567
LeftForeArm 8.544263 -0.000000 -3.833337
LeftHand -16.656931 -0.000000 -6.690601
LeftHandThumb1 -26.253704 0.000000 33.147579
Head 34.404213 -35.553958 5.438563
256
root 2.485123 32.469000 -6.345136 46.799219 3.722350 -2.534167
RightUpLeg -50.294874 -35.625944 3.324555
RightLeg -1.686592 -0.000000 0.000000
RightFoot 24.608758 -14.945803 12.717935
RightToeBase 19.754731 -0.000000 -0.000000
LeftUpLeg -43.267616 15.165055 -1.247434
LeftLeg -2.324081 -0.000000 0.000000
LeftFoot -6.838476 -2.418042 -14.012388
LeftToeBase 9.358754 -0.000000 -0.000000
Spine -42.195553 -4.769169 -1.924515
RightShoulder -20.534432 11.524026 -42.311814
RightArm -0.516736 -9.421785 48.974263
RightForeArm 10.448782 -0.000000 -6.910059
RightHand 8.562433 -0.000000 6.502005
RightHandThumb1 -24.326973 -0.000000 -32.862282
LeftShoulder -11.106275 6.648716 39.908300
LeftArm 22.047312 -15.419816 -43.928579
LeftForeArm 8.793736 0.000000 -3.874377
LeftHand -16.593660 -0.000000 -6.653030
LeftHandThumb1 -26.253704 0.000000 33.147579
Head 34.310087 -35.556532 5.579804
257
root 2.371097 32.450673 -6.325125 46.820297 3.789257 -2.503701
RightUpLeg -50.365659 -35.944857 3.265874
RightLeg -1.613663 -0.000000 0.000000
RightFoot 24.919309 -15.039818 12.850267
RightToeBase 19.942536 -0.000000 -0.000000
LeftUpLeg -43.274726 15.323099 -1.160868
LeftLeg -2.371814 -0.000000 0.000000
LeftFoot -6.757629 -2.494234 -14.095632
LeftToeBase 9.321020 -0.000000 -0.000000
Spine -42.242839 -4.848666 -2.038125
RightShoulder -20.572835 11.505612 -42.316181
RightArm -0.581859 -9.577679 48.932881
RightForeArm 10.555469 -0.000000 -6.943967
RightHand 8.768110 -0.000000 6.432209
RightHandThumb1 -24.326973 -0.000000 -32.862282
LeftShoulder -11.099143 6.645362 39.898231
LeftArm 22.164437 -15.278342 -43.882429
LeftForeArm 8.722583 -0.000000 -3.778768
LeftHand -16.706516 -0.000000 -6.558693
LeftHandThumb1 -26.253704 0.000000 33.147579
Head 34.177386 -35.538968 5.741898
